<svg width="206" height="61" viewBox="0 0 206 61" fill="none" xmlns="http://www.w3.org/2000/svg">
<path d="M206 0H25L0 61H1H181L206 0Z" fill="#C01E2D"/>
<path d="M206 0H25L0 61H1L101 31L206 0Z" fill="#D52132"/>
<path d="M53.311 35.1362L57.9829 21.6484H60.3413L54.2769 38H52.3677L46.3145 21.6484H48.6616L53.311 35.1362ZM64.4741 38H62.3965V25.8486H64.4741V38ZM62.228 22.6255C62.228 22.2886 62.3291 22.0041 62.5312 21.772C62.7409 21.5399 63.0479 21.4238 63.4521 21.4238C63.8564 21.4238 64.1634 21.5399 64.373 21.772C64.5827 22.0041 64.6875 22.2886 64.6875 22.6255C64.6875 22.9624 64.5827 23.2432 64.373 23.4678C64.1634 23.6924 63.8564 23.8047 63.4521 23.8047C63.0479 23.8047 62.7409 23.6924 62.5312 23.4678C62.3291 23.2432 62.228 22.9624 62.228 22.6255ZM72.8521 38.2246C71.2049 38.2246 69.8647 37.6855 68.8315 36.6074C67.7983 35.5218 67.2817 34.0731 67.2817 32.2612V31.8794C67.2817 30.674 67.5101 29.5996 67.9668 28.6562C68.431 27.7054 69.0749 26.9642 69.8984 26.4326C70.7295 25.8936 71.6279 25.624 72.5938 25.624C74.1735 25.624 75.4014 26.1444 76.2773 27.1851C77.1533 28.2257 77.5913 29.7157 77.5913 31.6548V32.5195H69.3594C69.3893 33.7174 69.7375 34.687 70.4038 35.4282C71.0776 36.1619 71.9312 36.5288 72.9644 36.5288C73.6981 36.5288 74.3195 36.3791 74.8286 36.0796C75.3377 35.7801 75.7832 35.3833 76.165 34.8892L77.4341 35.8774C76.4159 37.4422 74.8885 38.2246 72.8521 38.2246ZM72.5938 27.3311C71.7552 27.3311 71.0514 27.638 70.4824 28.252C69.9134 28.8584 69.5615 29.7119 69.4268 30.8125H75.5137V30.6553C75.4538 29.5996 75.1693 28.7835 74.6602 28.207C74.151 27.623 73.4622 27.3311 72.5938 27.3311ZM90.7646 35.1362L93.1006 25.8486H95.1782L91.6406 38H89.9561L87.0024 28.791L84.1274 38H82.4429L78.9165 25.8486H80.9829L83.375 34.9453L86.2051 25.8486H87.8784L90.7646 35.1362ZM103.332 38V21.6484H107.947C109.37 21.6484 110.628 21.9629 111.721 22.5918C112.814 23.2207 113.656 24.1154 114.248 25.2759C114.847 26.4364 115.15 27.769 115.157 29.2739V30.3184C115.157 31.8607 114.858 33.2121 114.259 34.3726C113.667 35.533 112.818 36.424 111.709 37.0454C110.609 37.6668 109.325 37.985 107.857 38H103.332ZM105.488 23.4229V36.2368H107.756C109.418 36.2368 110.71 35.7202 111.631 34.687C112.559 33.6538 113.023 32.1826 113.023 30.2734V29.3188C113.023 27.4621 112.585 26.0208 111.709 24.9951C110.841 23.9619 109.606 23.4378 108.003 23.4229H105.488ZM123.142 38.2246C121.495 38.2246 120.155 37.6855 119.122 36.6074C118.088 35.5218 117.572 34.0731 117.572 32.2612V31.8794C117.572 30.674 117.8 29.5996 118.257 28.6562C118.721 27.7054 119.365 26.9642 120.188 26.4326C121.02 25.8936 121.918 25.624 122.884 25.624C124.464 25.624 125.691 26.1444 126.567 27.1851C127.443 28.2257 127.881 29.7157 127.881 31.6548V32.5195H119.649C119.679 33.7174 120.028 34.687 120.694 35.4282C121.368 36.1619 122.221 36.5288 123.254 36.5288C123.988 36.5288 124.61 36.3791 125.119 36.0796C125.628 35.7801 126.073 35.3833 126.455 34.8892L127.724 35.8774C126.706 37.4422 125.179 38.2246 123.142 38.2246ZM122.884 27.3311C122.045 27.3311 121.341 27.638 120.772 28.252C120.203 28.8584 119.852 29.7119 119.717 30.8125H125.804V30.6553C125.744 29.5996 125.459 28.7835 124.95 28.207C124.441 27.623 123.752 27.3311 122.884 27.3311ZM132.25 25.8486L132.306 27.1963C133.197 26.1481 134.399 25.624 135.911 25.624C137.611 25.624 138.767 26.2754 139.381 27.5781C139.786 26.9941 140.31 26.5225 140.954 26.1631C141.605 25.8037 142.372 25.624 143.256 25.624C145.921 25.624 147.276 27.0353 147.321 29.8579V38H145.244V29.9814C145.244 29.113 145.045 28.4653 144.648 28.0386C144.252 27.6043 143.585 27.3872 142.649 27.3872C141.878 27.3872 141.238 27.6193 140.729 28.0835C140.22 28.5402 139.924 29.1579 139.842 29.9365V38H137.753V30.0376C137.753 28.2707 136.888 27.3872 135.159 27.3872C133.796 27.3872 132.864 27.9674 132.362 29.1279V38H130.285V25.8486H132.25ZM149.916 31.812C149.916 30.6216 150.148 29.5509 150.612 28.6001C151.083 27.6493 151.735 26.9155 152.566 26.3989C153.404 25.8823 154.359 25.624 155.43 25.624C157.084 25.624 158.421 26.1968 159.439 27.3423C160.465 28.4878 160.978 30.0114 160.978 31.9131V32.0591C160.978 33.242 160.749 34.3052 160.292 35.2485C159.843 36.1844 159.196 36.9144 158.35 37.4385C157.511 37.9626 156.545 38.2246 155.452 38.2246C153.805 38.2246 152.469 37.6519 151.443 36.5063C150.425 35.3608 149.916 33.8447 149.916 31.958V31.812ZM152.004 32.0591C152.004 33.4067 152.315 34.4886 152.937 35.3047C153.565 36.1208 154.404 36.5288 155.452 36.5288C156.508 36.5288 157.346 36.117 157.968 35.2935C158.589 34.4624 158.9 33.3019 158.9 31.812C158.9 30.4793 158.582 29.4012 157.945 28.5776C157.316 27.7466 156.478 27.3311 155.43 27.3311C154.404 27.3311 153.577 27.7391 152.948 28.5552C152.319 29.3713 152.004 30.5392 152.004 32.0591Z" fill="white"/>
</svg>
