<svg width="286" height="62" viewBox="0 0 286 62" fill="none" xmlns="http://www.w3.org/2000/svg">
<rect y="3" width="79" height="55.8448" rx="27.9224" fill="#0790F3"/>
<path d="M25.8789 17.9828H27.241V3H33.3703V17.9828H52.4393V43.8621H51.0772V58.8448H45.6289V43.8621V30.9224H31.3272V43.8621H25.8789V17.9828Z" fill="white"/>
<path d="M25.8803 43.8622C22.8098 43.8622 19.8649 42.4989 17.6937 40.0723C15.5225 37.6456 14.3027 34.3544 14.3027 30.9226C14.3027 27.4908 15.5225 24.1995 17.6937 21.7728C19.865 19.3462 22.8098 17.9829 25.8803 17.9829L25.8803 30.9226L25.8803 43.8622Z" fill="white"/>
<path d="M52.4361 17.9835C55.5067 17.9835 58.4515 19.3468 60.6227 21.7734C62.7939 24.2001 64.0137 27.4913 64.0137 30.9231C64.0137 34.3549 62.7939 37.6462 60.6227 40.0729C58.4515 42.4995 55.5067 43.8628 52.4361 43.8628L52.4361 30.9231L52.4361 17.9835Z" fill="white"/>
<path d="M104.989 9.854C103.063 9.854 101.587 10.457 100.561 11.663C99.553 12.851 99.049 14.507 99.049 16.631C99.049 17.639 99.166 18.566 99.4 19.412C99.652 20.24 100.012 20.951 100.48 21.545C100.966 22.139 101.56 22.607 102.262 22.949C102.982 23.273 103.819 23.435 104.773 23.435C105.367 23.435 105.88 23.417 106.312 23.381C106.744 23.327 107.086 23.264 107.338 23.192V16.469H110.74V25.46C110.272 25.64 109.48 25.838 108.364 26.054C107.248 26.27 105.961 26.378 104.503 26.378C103.153 26.378 101.92 26.162 100.804 25.73C99.688 25.298 98.734 24.668 97.942 23.84C97.168 23.012 96.565 21.995 96.133 20.789C95.701 19.583 95.485 18.197 95.485 16.631C95.485 15.065 95.719 13.679 96.187 12.473C96.673 11.267 97.33 10.25 98.158 9.422C98.986 8.576 99.958 7.937 101.074 7.505C102.19 7.073 103.378 6.857 104.638 6.857C105.502 6.857 106.267 6.92 106.933 7.046C107.617 7.154 108.202 7.28 108.688 7.424C109.174 7.568 109.57 7.721 109.876 7.883C110.2 8.045 110.425 8.162 110.551 8.234L109.525 11.015C108.985 10.691 108.31 10.421 107.5 10.205C106.708 9.971 105.871 9.854 104.989 9.854ZM113.727 19.007C113.727 17.765 113.907 16.676 114.267 15.74C114.645 14.804 115.14 14.03 115.752 13.418C116.364 12.788 117.066 12.32 117.858 12.014C118.65 11.69 119.46 11.528 120.288 11.528C122.232 11.528 123.744 12.131 124.824 13.337C125.922 14.543 126.471 16.343 126.471 18.737C126.471 18.917 126.462 19.124 126.444 19.358C126.444 19.574 126.435 19.772 126.417 19.952H117.102C117.192 21.086 117.588 21.968 118.29 22.598C119.01 23.21 120.045 23.516 121.395 23.516C122.187 23.516 122.907 23.444 123.555 23.3C124.221 23.156 124.743 23.003 125.121 22.841L125.553 25.514C125.373 25.604 125.121 25.703 124.797 25.811C124.491 25.901 124.131 25.982 123.717 26.054C123.321 26.144 122.889 26.216 122.421 26.27C121.953 26.324 121.476 26.351 120.99 26.351C119.748 26.351 118.668 26.171 117.75 25.811C116.832 25.433 116.076 24.92 115.482 24.272C114.888 23.606 114.447 22.832 114.159 21.95C113.871 21.05 113.727 20.069 113.727 19.007ZM123.204 17.549C123.204 17.099 123.141 16.676 123.015 16.28C122.889 15.866 122.7 15.515 122.448 15.227C122.214 14.921 121.917 14.687 121.557 14.525C121.215 14.345 120.801 14.255 120.315 14.255C119.811 14.255 119.37 14.354 118.992 14.552C118.614 14.732 118.29 14.975 118.02 15.281C117.768 15.587 117.57 15.938 117.426 16.334C117.282 16.73 117.183 17.135 117.129 17.549H123.204ZM137.98 14.822C137.71 14.732 137.332 14.642 136.846 14.552C136.378 14.444 135.829 14.39 135.199 14.39C134.839 14.39 134.452 14.426 134.038 14.498C133.642 14.57 133.363 14.633 133.201 14.687V26H129.934V12.554C130.564 12.32 131.347 12.104 132.283 11.906C133.237 11.69 134.29 11.582 135.442 11.582C135.658 11.582 135.91 11.6 136.198 11.636C136.486 11.654 136.774 11.69 137.062 11.744C137.35 11.78 137.629 11.834 137.899 11.906C138.169 11.96 138.385 12.014 138.547 12.068L137.98 14.822ZM140.041 19.007C140.041 17.765 140.221 16.676 140.581 15.74C140.959 14.804 141.454 14.03 142.066 13.418C142.678 12.788 143.38 12.32 144.172 12.014C144.964 11.69 145.774 11.528 146.602 11.528C148.546 11.528 150.058 12.131 151.138 13.337C152.236 14.543 152.785 16.343 152.785 18.737C152.785 18.917 152.776 19.124 152.758 19.358C152.758 19.574 152.749 19.772 152.731 19.952H143.416C143.506 21.086 143.902 21.968 144.604 22.598C145.324 23.21 146.359 23.516 147.709 23.516C148.501 23.516 149.221 23.444 149.869 23.3C150.535 23.156 151.057 23.003 151.435 22.841L151.867 25.514C151.687 25.604 151.435 25.703 151.111 25.811C150.805 25.901 150.445 25.982 150.031 26.054C149.635 26.144 149.203 26.216 148.735 26.27C148.267 26.324 147.79 26.351 147.304 26.351C146.062 26.351 144.982 26.171 144.064 25.811C143.146 25.433 142.39 24.92 141.796 24.272C141.202 23.606 140.761 22.832 140.473 21.95C140.185 21.05 140.041 20.069 140.041 19.007ZM149.518 17.549C149.518 17.099 149.455 16.676 149.329 16.28C149.203 15.866 149.014 15.515 148.762 15.227C148.528 14.921 148.231 14.687 147.871 14.525C147.529 14.345 147.115 14.255 146.629 14.255C146.125 14.255 145.684 14.354 145.306 14.552C144.928 14.732 144.604 14.975 144.334 15.281C144.082 15.587 143.884 15.938 143.74 16.334C143.596 16.73 143.497 17.135 143.443 17.549H149.518ZM156.249 12.338C156.879 12.158 157.698 11.987 158.706 11.825C159.714 11.663 160.83 11.582 162.054 11.582C163.206 11.582 164.169 11.744 164.943 12.068C165.717 12.374 166.329 12.815 166.779 13.391C167.247 13.949 167.571 14.633 167.751 15.443C167.949 16.235 168.048 17.108 168.048 18.062V26H164.781V18.575C164.781 17.819 164.727 17.18 164.619 16.658C164.529 16.118 164.367 15.686 164.133 15.362C163.917 15.02 163.611 14.777 163.215 14.633C162.837 14.471 162.369 14.39 161.811 14.39C161.397 14.39 160.965 14.417 160.515 14.471C160.065 14.525 159.732 14.57 159.516 14.606V26H156.249V12.338ZM171.26 18.953C171.26 17.909 171.422 16.937 171.746 16.037C172.07 15.119 172.529 14.327 173.123 13.661C173.735 12.995 174.473 12.473 175.337 12.095C176.201 11.717 177.173 11.528 178.253 11.528C179.585 11.528 180.845 11.771 182.033 12.257L181.331 14.93C180.953 14.768 180.521 14.633 180.035 14.525C179.567 14.417 179.063 14.363 178.523 14.363C177.245 14.363 176.273 14.768 175.607 15.578C174.941 16.37 174.608 17.495 174.608 18.953C174.608 20.357 174.923 21.473 175.553 22.301C176.183 23.111 177.245 23.516 178.739 23.516C179.297 23.516 179.846 23.462 180.386 23.354C180.926 23.246 181.394 23.111 181.79 22.949L182.249 25.649C181.889 25.829 181.34 25.991 180.602 26.135C179.882 26.279 179.135 26.351 178.361 26.351C177.155 26.351 176.102 26.171 175.202 25.811C174.32 25.433 173.582 24.92 172.988 24.272C172.412 23.606 171.98 22.823 171.692 21.923C171.404 21.005 171.26 20.015 171.26 18.953ZM188.072 26H184.805V11.879H188.072V26ZM188.423 7.748C188.423 8.36 188.225 8.846 187.829 9.206C187.433 9.566 186.965 9.746 186.425 9.746C185.867 9.746 185.39 9.566 184.994 9.206C184.598 8.846 184.4 8.36 184.4 7.748C184.4 7.118 184.598 6.623 184.994 6.263C185.39 5.903 185.867 5.723 186.425 5.723C186.965 5.723 187.433 5.903 187.829 6.263C188.225 6.623 188.423 7.118 188.423 7.748ZM197.208 23.705C198.216 23.705 198.981 23.651 199.503 23.543V19.925C199.323 19.871 199.062 19.817 198.72 19.763C198.378 19.709 198 19.682 197.586 19.682C197.226 19.682 196.857 19.709 196.479 19.763C196.119 19.817 195.786 19.916 195.48 20.06C195.192 20.204 194.958 20.411 194.778 20.681C194.598 20.933 194.508 21.257 194.508 21.653C194.508 22.427 194.751 22.967 195.237 23.273C195.723 23.561 196.38 23.705 197.208 23.705ZM196.938 11.528C198.018 11.528 198.927 11.663 199.665 11.933C200.403 12.203 200.988 12.581 201.42 13.067C201.87 13.553 202.185 14.147 202.365 14.849C202.563 15.533 202.662 16.289 202.662 17.117V25.676C202.158 25.784 201.393 25.91 200.367 26.054C199.359 26.216 198.216 26.297 196.938 26.297C196.092 26.297 195.318 26.216 194.616 26.054C193.914 25.892 193.311 25.631 192.807 25.271C192.321 24.911 191.934 24.443 191.646 23.867C191.376 23.291 191.241 22.58 191.241 21.734C191.241 20.924 191.394 20.24 191.7 19.682C192.024 19.124 192.456 18.674 192.996 18.332C193.536 17.972 194.157 17.72 194.859 17.576C195.579 17.414 196.326 17.333 197.1 17.333C197.46 17.333 197.838 17.36 198.234 17.414C198.63 17.45 199.053 17.522 199.503 17.63V17.09C199.503 16.712 199.458 16.352 199.368 16.01C199.278 15.668 199.116 15.371 198.882 15.119C198.666 14.849 198.369 14.642 197.991 14.498C197.631 14.354 197.172 14.282 196.614 14.282C195.858 14.282 195.165 14.336 194.535 14.444C193.905 14.552 193.392 14.678 192.996 14.822L192.591 12.176C193.005 12.032 193.608 11.888 194.4 11.744C195.192 11.6 196.038 11.528 196.938 11.528ZM209.228 18.899C209.228 20.339 209.57 21.473 210.254 22.301C210.938 23.111 211.883 23.516 213.089 23.516C213.611 23.516 214.052 23.498 214.412 23.462C214.79 23.408 215.096 23.354 215.33 23.3V15.2C215.042 15.002 214.655 14.822 214.169 14.66C213.701 14.48 213.197 14.39 212.657 14.39C211.469 14.39 210.596 14.795 210.038 15.605C209.498 16.415 209.228 17.513 209.228 18.899ZM218.597 25.568C217.949 25.766 217.13 25.946 216.14 26.108C215.168 26.27 214.142 26.351 213.062 26.351C211.946 26.351 210.947 26.18 210.065 25.838C209.183 25.496 208.427 25.01 207.797 24.38C207.185 23.732 206.708 22.958 206.366 22.058C206.042 21.14 205.88 20.114 205.88 18.98C205.88 17.864 206.015 16.856 206.285 15.956C206.573 15.038 206.987 14.255 207.527 13.607C208.067 12.959 208.724 12.464 209.498 12.122C210.272 11.762 211.163 11.582 212.171 11.582C212.855 11.582 213.458 11.663 213.98 11.825C214.502 11.987 214.952 12.167 215.33 12.365V5.588L218.597 5.048V25.568ZM235.518 18.926C235.518 20.042 235.356 21.059 235.032 21.977C234.708 22.895 234.249 23.678 233.655 24.326C233.061 24.974 232.341 25.478 231.495 25.838C230.667 26.198 229.749 26.378 228.741 26.378C227.733 26.378 226.815 26.198 225.987 25.838C225.159 25.478 224.448 24.974 223.854 24.326C223.26 23.678 222.792 22.895 222.45 21.977C222.126 21.059 221.964 20.042 221.964 18.926C221.964 17.81 222.126 16.802 222.45 15.902C222.792 14.984 223.26 14.201 223.854 13.553C224.466 12.905 225.186 12.41 226.014 12.068C226.842 11.708 227.751 11.528 228.741 11.528C229.731 11.528 230.64 11.708 231.468 12.068C232.314 12.41 233.034 12.905 233.628 13.553C234.222 14.201 234.681 14.984 235.005 15.902C235.347 16.802 235.518 17.81 235.518 18.926ZM232.17 18.926C232.17 17.522 231.864 16.415 231.252 15.605C230.658 14.777 229.821 14.363 228.741 14.363C227.661 14.363 226.815 14.777 226.203 15.605C225.609 16.415 225.312 17.522 225.312 18.926C225.312 20.348 225.609 21.473 226.203 22.301C226.815 23.129 227.661 23.543 228.741 23.543C229.821 23.543 230.658 23.129 231.252 22.301C231.864 21.473 232.17 20.348 232.17 18.926ZM246.93 14.822C246.66 14.732 246.282 14.642 245.796 14.552C245.328 14.444 244.779 14.39 244.149 14.39C243.789 14.39 243.402 14.426 242.988 14.498C242.592 14.57 242.313 14.633 242.151 14.687V26H238.884V12.554C239.514 12.32 240.297 12.104 241.233 11.906C242.187 11.69 243.24 11.582 244.392 11.582C244.608 11.582 244.86 11.6 245.148 11.636C245.436 11.654 245.724 11.69 246.012 11.744C246.3 11.78 246.579 11.834 246.849 11.906C247.119 11.96 247.335 12.014 247.497 12.068L246.93 14.822ZM258.64 18.899C258.64 20.339 258.982 21.473 259.666 22.301C260.35 23.111 261.295 23.516 262.501 23.516C263.023 23.516 263.464 23.498 263.824 23.462C264.202 23.408 264.508 23.354 264.742 23.3V15.2C264.454 15.002 264.067 14.822 263.581 14.66C263.113 14.48 262.609 14.39 262.069 14.39C260.881 14.39 260.008 14.795 259.45 15.605C258.91 16.415 258.64 17.513 258.64 18.899ZM268.009 25.568C267.361 25.766 266.542 25.946 265.552 26.108C264.58 26.27 263.554 26.351 262.474 26.351C261.358 26.351 260.359 26.18 259.477 25.838C258.595 25.496 257.839 25.01 257.209 24.38C256.597 23.732 256.12 22.958 255.778 22.058C255.454 21.14 255.292 20.114 255.292 18.98C255.292 17.864 255.427 16.856 255.697 15.956C255.985 15.038 256.399 14.255 256.939 13.607C257.479 12.959 258.136 12.464 258.91 12.122C259.684 11.762 260.575 11.582 261.583 11.582C262.267 11.582 262.87 11.663 263.392 11.825C263.914 11.987 264.364 12.167 264.742 12.365V5.588L268.009 5.048V25.568ZM271.376 19.007C271.376 17.765 271.556 16.676 271.916 15.74C272.294 14.804 272.789 14.03 273.401 13.418C274.013 12.788 274.715 12.32 275.507 12.014C276.299 11.69 277.109 11.528 277.937 11.528C279.881 11.528 281.393 12.131 282.473 13.337C283.571 14.543 284.12 16.343 284.12 18.737C284.12 18.917 284.111 19.124 284.093 19.358C284.093 19.574 284.084 19.772 284.066 19.952H274.751C274.841 21.086 275.237 21.968 275.939 22.598C276.659 23.21 277.694 23.516 279.044 23.516C279.836 23.516 280.556 23.444 281.204 23.3C281.87 23.156 282.392 23.003 282.77 22.841L283.202 25.514C283.022 25.604 282.77 25.703 282.446 25.811C282.14 25.901 281.78 25.982 281.366 26.054C280.97 26.144 280.538 26.216 280.07 26.27C279.602 26.324 279.125 26.351 278.639 26.351C277.397 26.351 276.317 26.171 275.399 25.811C274.481 25.433 273.725 24.92 273.131 24.272C272.537 23.606 272.096 22.832 271.808 21.95C271.52 21.05 271.376 20.069 271.376 19.007ZM280.853 17.549C280.853 17.099 280.79 16.676 280.664 16.28C280.538 15.866 280.349 15.515 280.097 15.227C279.863 14.921 279.566 14.687 279.206 14.525C278.864 14.345 278.45 14.255 277.964 14.255C277.46 14.255 277.019 14.354 276.641 14.552C276.263 14.732 275.939 14.975 275.669 15.281C275.417 15.587 275.219 15.938 275.075 16.334C274.931 16.73 274.832 17.135 274.778 17.549H280.853ZM98.644 49.899C98.644 51.339 98.986 52.473 99.67 53.301C100.354 54.111 101.299 54.516 102.505 54.516C103.027 54.516 103.468 54.498 103.828 54.462C104.206 54.408 104.512 54.354 104.746 54.3V46.2C104.458 46.002 104.071 45.822 103.585 45.66C103.117 45.48 102.613 45.39 102.073 45.39C100.885 45.39 100.012 45.795 99.454 46.605C98.914 47.415 98.644 48.513 98.644 49.899ZM108.013 56.568C107.365 56.766 106.546 56.946 105.556 57.108C104.584 57.27 103.558 57.351 102.478 57.351C101.362 57.351 100.363 57.18 99.481 56.838C98.599 56.496 97.843 56.01 97.213 55.38C96.601 54.732 96.124 53.958 95.782 53.058C95.458 52.14 95.296 51.114 95.296 49.98C95.296 48.864 95.431 47.856 95.701 46.956C95.989 46.038 96.403 45.255 96.943 44.607C97.483 43.959 98.14 43.464 98.914 43.122C99.688 42.762 100.579 42.582 101.587 42.582C102.271 42.582 102.874 42.663 103.396 42.825C103.918 42.987 104.368 43.167 104.746 43.365V36.588L108.013 36.048V56.568ZM111.38 50.007C111.38 48.765 111.56 47.676 111.92 46.74C112.298 45.804 112.793 45.03 113.405 44.418C114.017 43.788 114.719 43.32 115.511 43.014C116.303 42.69 117.113 42.528 117.941 42.528C119.885 42.528 121.397 43.131 122.477 44.337C123.575 45.543 124.124 47.343 124.124 49.737C124.124 49.917 124.115 50.124 124.097 50.358C124.097 50.574 124.088 50.772 124.07 50.952H114.755C114.845 52.086 115.241 52.968 115.943 53.598C116.663 54.21 117.698 54.516 119.048 54.516C119.84 54.516 120.56 54.444 121.208 54.3C121.874 54.156 122.396 54.003 122.774 53.841L123.206 56.514C123.026 56.604 122.774 56.703 122.45 56.811C122.144 56.901 121.784 56.982 121.37 57.054C120.974 57.144 120.542 57.216 120.074 57.27C119.606 57.324 119.129 57.351 118.643 57.351C117.401 57.351 116.321 57.171 115.403 56.811C114.485 56.433 113.729 55.92 113.135 55.272C112.541 54.606 112.1 53.832 111.812 52.95C111.524 52.05 111.38 51.069 111.38 50.007ZM120.857 48.549C120.857 48.099 120.794 47.676 120.668 47.28C120.542 46.866 120.353 46.515 120.101 46.227C119.867 45.921 119.57 45.687 119.21 45.525C118.868 45.345 118.454 45.255 117.968 45.255C117.464 45.255 117.023 45.354 116.645 45.552C116.267 45.732 115.943 45.975 115.673 46.281C115.421 46.587 115.223 46.938 115.079 47.334C114.935 47.73 114.836 48.135 114.782 48.549H120.857ZM131.206 57C130.306 55.146 129.379 53.022 128.425 50.628C127.489 48.216 126.634 45.633 125.86 42.879H129.343C129.541 43.671 129.766 44.526 130.018 45.444C130.288 46.344 130.567 47.253 130.855 48.171C131.161 49.071 131.467 49.953 131.773 50.817C132.097 51.663 132.394 52.428 132.664 53.112C132.934 52.428 133.222 51.663 133.528 50.817C133.834 49.953 134.131 49.071 134.419 48.171C134.725 47.253 135.013 46.344 135.283 45.444C135.553 44.526 135.787 43.671 135.985 42.879H139.36C138.586 45.633 137.722 48.216 136.768 50.628C135.832 53.022 134.914 55.146 134.014 57H131.206ZM140.7 50.007C140.7 48.765 140.88 47.676 141.24 46.74C141.618 45.804 142.113 45.03 142.725 44.418C143.337 43.788 144.039 43.32 144.831 43.014C145.623 42.69 146.433 42.528 147.261 42.528C149.205 42.528 150.717 43.131 151.797 44.337C152.895 45.543 153.444 47.343 153.444 49.737C153.444 49.917 153.435 50.124 153.417 50.358C153.417 50.574 153.408 50.772 153.39 50.952H144.075C144.165 52.086 144.561 52.968 145.263 53.598C145.983 54.21 147.018 54.516 148.368 54.516C149.16 54.516 149.88 54.444 150.528 54.3C151.194 54.156 151.716 54.003 152.094 53.841L152.526 56.514C152.346 56.604 152.094 56.703 151.77 56.811C151.464 56.901 151.104 56.982 150.69 57.054C150.294 57.144 149.862 57.216 149.394 57.27C148.926 57.324 148.449 57.351 147.963 57.351C146.721 57.351 145.641 57.171 144.723 56.811C143.805 56.433 143.049 55.92 142.455 55.272C141.861 54.606 141.42 53.832 141.132 52.95C140.844 52.05 140.7 51.069 140.7 50.007ZM150.177 48.549C150.177 48.099 150.114 47.676 149.988 47.28C149.862 46.866 149.673 46.515 149.421 46.227C149.187 45.921 148.89 45.687 148.53 45.525C148.188 45.345 147.774 45.255 147.288 45.255C146.784 45.255 146.343 45.354 145.965 45.552C145.587 45.732 145.263 45.975 144.993 46.281C144.741 46.587 144.543 46.938 144.399 47.334C144.255 47.73 144.156 48.135 144.102 48.549H150.177ZM159.473 49.899C159.473 51.339 159.815 52.473 160.499 53.301C161.183 54.111 162.128 54.516 163.334 54.516C163.856 54.516 164.297 54.498 164.657 54.462C165.035 54.408 165.341 54.354 165.575 54.3V46.2C165.287 46.002 164.9 45.822 164.414 45.66C163.946 45.48 163.442 45.39 162.902 45.39C161.714 45.39 160.841 45.795 160.283 46.605C159.743 47.415 159.473 48.513 159.473 49.899ZM168.842 56.568C168.194 56.766 167.375 56.946 166.385 57.108C165.413 57.27 164.387 57.351 163.307 57.351C162.191 57.351 161.192 57.18 160.31 56.838C159.428 56.496 158.672 56.01 158.042 55.38C157.43 54.732 156.953 53.958 156.611 53.058C156.287 52.14 156.125 51.114 156.125 49.98C156.125 48.864 156.26 47.856 156.53 46.956C156.818 46.038 157.232 45.255 157.772 44.607C158.312 43.959 158.969 43.464 159.743 43.122C160.517 42.762 161.408 42.582 162.416 42.582C163.1 42.582 163.703 42.663 164.225 42.825C164.747 42.987 165.197 43.167 165.575 43.365V36.588L168.842 36.048V56.568ZM185.763 49.926C185.763 51.042 185.601 52.059 185.277 52.977C184.953 53.895 184.494 54.678 183.9 55.326C183.306 55.974 182.586 56.478 181.74 56.838C180.912 57.198 179.994 57.378 178.986 57.378C177.978 57.378 177.06 57.198 176.232 56.838C175.404 56.478 174.693 55.974 174.099 55.326C173.505 54.678 173.037 53.895 172.695 52.977C172.371 52.059 172.209 51.042 172.209 49.926C172.209 48.81 172.371 47.802 172.695 46.902C173.037 45.984 173.505 45.201 174.099 44.553C174.711 43.905 175.431 43.41 176.259 43.068C177.087 42.708 177.996 42.528 178.986 42.528C179.976 42.528 180.885 42.708 181.713 43.068C182.559 43.41 183.279 43.905 183.873 44.553C184.467 45.201 184.926 45.984 185.25 46.902C185.592 47.802 185.763 48.81 185.763 49.926ZM182.415 49.926C182.415 48.522 182.109 47.415 181.497 46.605C180.903 45.777 180.066 45.363 178.986 45.363C177.906 45.363 177.06 45.777 176.448 46.605C175.854 47.415 175.557 48.522 175.557 49.926C175.557 51.348 175.854 52.473 176.448 53.301C177.06 54.129 177.906 54.543 178.986 54.543C180.066 54.543 180.903 54.129 181.497 53.301C182.109 52.473 182.415 51.348 182.415 49.926ZM197.175 45.822C196.905 45.732 196.527 45.642 196.041 45.552C195.573 45.444 195.024 45.39 194.394 45.39C194.034 45.39 193.647 45.426 193.233 45.498C192.837 45.57 192.558 45.633 192.396 45.687V57H189.129V43.554C189.759 43.32 190.542 43.104 191.478 42.906C192.432 42.69 193.485 42.582 194.637 42.582C194.853 42.582 195.105 42.6 195.393 42.636C195.681 42.654 195.969 42.69 196.257 42.744C196.545 42.78 196.824 42.834 197.094 42.906C197.364 42.96 197.58 43.014 197.742 43.068L197.175 45.822ZM199.235 50.007C199.235 48.765 199.415 47.676 199.775 46.74C200.153 45.804 200.648 45.03 201.26 44.418C201.872 43.788 202.574 43.32 203.366 43.014C204.158 42.69 204.968 42.528 205.796 42.528C207.74 42.528 209.252 43.131 210.332 44.337C211.43 45.543 211.979 47.343 211.979 49.737C211.979 49.917 211.97 50.124 211.952 50.358C211.952 50.574 211.943 50.772 211.925 50.952H202.61C202.7 52.086 203.096 52.968 203.798 53.598C204.518 54.21 205.553 54.516 206.903 54.516C207.695 54.516 208.415 54.444 209.063 54.3C209.729 54.156 210.251 54.003 210.629 53.841L211.061 56.514C210.881 56.604 210.629 56.703 210.305 56.811C209.999 56.901 209.639 56.982 209.225 57.054C208.829 57.144 208.397 57.216 207.929 57.27C207.461 57.324 206.984 57.351 206.498 57.351C205.256 57.351 204.176 57.171 203.258 56.811C202.34 56.433 201.584 55.92 200.99 55.272C200.396 54.606 199.955 53.832 199.667 52.95C199.379 52.05 199.235 51.069 199.235 50.007ZM208.712 48.549C208.712 48.099 208.649 47.676 208.523 47.28C208.397 46.866 208.208 46.515 207.956 46.227C207.722 45.921 207.425 45.687 207.065 45.525C206.723 45.345 206.309 45.255 205.823 45.255C205.319 45.255 204.878 45.354 204.5 45.552C204.122 45.732 203.798 45.975 203.528 46.281C203.276 46.587 203.078 46.938 202.934 47.334C202.79 47.73 202.691 48.135 202.637 48.549H208.712ZM218.98 54.651C219.844 54.651 220.474 54.552 220.87 54.354C221.266 54.138 221.464 53.778 221.464 53.274C221.464 52.806 221.248 52.419 220.816 52.113C220.402 51.807 219.709 51.474 218.737 51.114C218.143 50.898 217.594 50.673 217.09 50.439C216.604 50.187 216.181 49.899 215.821 49.575C215.461 49.251 215.173 48.864 214.957 48.414C214.759 47.946 214.66 47.379 214.66 46.713C214.66 45.417 215.137 44.4 216.091 43.662C217.045 42.906 218.341 42.528 219.979 42.528C220.807 42.528 221.599 42.609 222.355 42.771C223.111 42.915 223.678 43.059 224.056 43.203L223.462 45.849C223.102 45.687 222.643 45.543 222.085 45.417C221.527 45.273 220.879 45.201 220.141 45.201C219.475 45.201 218.935 45.318 218.521 45.552C218.107 45.768 217.9 46.11 217.9 46.578C217.9 46.812 217.936 47.019 218.008 47.199C218.098 47.379 218.242 47.55 218.44 47.712C218.638 47.856 218.899 48.009 219.223 48.171C219.547 48.315 219.943 48.468 220.411 48.63C221.185 48.918 221.842 49.206 222.382 49.494C222.922 49.764 223.363 50.079 223.705 50.439C224.065 50.781 224.326 51.177 224.488 51.627C224.65 52.077 224.731 52.617 224.731 53.247C224.731 54.597 224.227 55.623 223.219 56.325C222.229 57.009 220.807 57.351 218.953 57.351C217.711 57.351 216.712 57.243 215.956 57.027C215.2 56.829 214.669 56.667 214.363 56.541L214.93 53.814C215.416 54.012 215.992 54.201 216.658 54.381C217.342 54.561 218.116 54.651 218.98 54.651Z" fill="#423F52"/>
</svg>
