<svg width="35" height="35" viewBox="0 0 35 35" fill="none" xmlns="http://www.w3.org/2000/svg">
<path d="M15.9946 9.59677H19.0054V11.1022H15.9946V9.59677ZM35 30.4212C35 32.9501 32.9501 35 30.4212 35H4.57879C2.04995 35 0 32.9501 0 30.4212V4.57879C0 2.04995 2.04995 0 4.57879 0H30.421C32.9501 0 35 2.04995 35 4.57879V30.4212ZM26.1245 12.5134C26.1245 11.7338 25.4928 11.1022 24.7132 11.1022H21.828V9.43457C21.828 7.92261 20.6556 6.77419 19.1435 6.77419H15.982C14.4699 6.77419 13.172 7.92261 13.172 9.43457V11.1022H10.4121C9.63253 11.1022 9.00083 11.7338 9.00083 12.5134C9.00083 13.293 9.63253 13.9247 10.4121 13.9247H10.7258V23.5864C10.7258 25.4145 12.218 26.9086 14.0459 26.9086H21.0794C22.9073 26.9086 24.2742 25.4145 24.2742 23.5864V13.9247H24.7132C25.4928 13.9247 26.1245 13.293 26.1245 12.5134Z" fill="#EC524B"/>
</svg>
