<svg width="35" height="35" viewBox="0 0 35 35" fill="none" xmlns="http://www.w3.org/2000/svg">
<path d="M35 4.57879C35 2.04995 32.9501 0 30.4212 0H4.57879C2.04995 0 0 2.04995 0 4.57879V30.421C0 32.9501 2.04995 35 4.57879 35H30.421C32.9501 35 35 32.9501 35 30.4212V4.57879ZM7.85637 28.5799C7.09804 28.7834 6.40406 28.0894 6.60747 27.331L7.86503 22.6437L12.5435 27.3222L7.85637 28.5799ZM28.0613 11.5336L14.2149 25.3803L9.55782 20.7232L23.4043 6.87675C24.061 6.22003 25.1255 6.22003 25.7822 6.87675L28.0613 9.15589C28.7179 9.81242 28.7179 10.8769 28.0613 11.5336Z" fill="#0984DA"/>
</svg>
