<svg width="204" height="252" viewBox="0 0 204 252" fill="none" xmlns="http://www.w3.org/2000/svg">
<path d="M176.831 59.4122C193.963 83.2082 203.227 106.932 203.942 129.418C204.744 151.908 197.017 173.229 186.815 195.207C176.611 217.113 163.855 239.672 146.729 242.655C129.602 245.566 108.101 228.973 84.6345 219.587C61.0839 210.271 35.585 208.233 19.6858 194.19C3.8069 180.072 -2.38835 153.946 0.819283 128.473C4.09929 103.004 16.9269 78.1756 36.604 54.8999C56.3564 31.5404 83.1031 9.70713 108.903 10.7247C134.775 11.7451 159.774 35.6133 176.831 59.4122Z" fill="#F8F8F8"/>
<path d="M133.061 158.955C138.31 173.602 140.464 240.628 140.464 252H113.303L101.998 226.562L121.62 155.339L133.061 158.955Z" fill="#0984DA"/>
<path d="M123.447 160.819C121.965 170.613 108.772 244.23 105.828 252H66.5839C64.9164 246.45 58.617 181.155 66.5839 157.111C74.5509 133.066 123.447 160.819 123.447 160.819Z" fill="#0790F3"/>
<path d="M130.255 121.9C132.753 121.408 166.752 105.923 174.452 99.3322C182.153 92.7415 172.953 87.651 170.052 89.3479C167.151 91.0447 136.954 104.027 130.753 105.923C124.552 107.819 130.255 121.9 130.255 121.9Z" fill="#DE8E68"/>
<path d="M182.314 51.6724L157.588 53.5981L161.314 101.3L186.04 99.3739L182.314 51.6724Z" fill="#DEDEDE"/>
<path d="M146.98 62.6465L159.912 88.9024" stroke="black" stroke-width="8" stroke-linecap="round" stroke-linejoin="round"/>
<path d="M96.0441 51.7882C103.085 51.0195 107.887 42.1265 106.77 31.9252C105.653 21.7238 99.0397 14.0772 91.9987 14.8459C84.9578 15.6146 80.1556 24.5076 81.2727 34.7089C82.3897 44.9103 89.0031 52.5569 96.0441 51.7882Z" fill="#DE8E68"/>
<path d="M91.4801 54.7319C134.326 54.7319 136.323 158.941 134.441 160.82C132.56 162.698 88.9904 171.515 65.2517 161.687C59.4588 136.538 63.3989 54.7319 91.4801 54.7319Z" fill="#FED385"/>
<path d="M159.278 76.3596C159.278 73.9199 156.673 68.8438 152.848 69.7457C150.217 70.3643 146.598 75.634 145.032 77.8714C139.731 81.5166 106.19 109.218 103.611 111.9C103.504 109.663 101.353 105.185 98.7703 101.043L76.9277 115.147C79.1887 121.416 93.2814 137.983 98.7703 137.983C113.179 137.983 142.311 98.8924 149.693 88.4079C153.144 86.0115 159.281 81.2275 159.278 76.3596Z" fill="#DE8E68"/>
<path d="M72.0156 24.2816C72.0156 18.8558 76.4247 15.6819 77.8577 14.199C80.7527 11.1927 82.4896 3.17685 88.6067 3.17685C90.3437 3.17685 93.0418 4.18569 94.7383 4.18569C96.8603 4.17702 101.084 0 105.343 0C112.476 0 114.062 6.55604 114.062 8.57084C114.062 15.9478 104.862 21.5153 103.64 22.1801C103.122 21.3331 100.745 18.165 99.955 17.6851C99.0083 19.6566 92.6191 22.9375 87.7903 25.8773C85.0864 27.525 83.3842 40.3133 83.4247 41.3221C78.9144 41.3366 72.0156 34.503 72.0156 24.2816Z" fill="#FD8369"/>
<path d="M82.7152 40.0935C84.7218 40.0935 86.3484 38.4693 86.3484 36.4657C86.3484 34.4621 84.7218 32.8379 82.7152 32.8379C80.7087 32.8379 79.082 34.4621 79.082 36.4657C79.082 38.4693 80.7087 40.0935 82.7152 40.0935Z" fill="#DE8E68"/>
<path d="M97.5613 61.6435C97.8508 63.4559 86.4707 62.9963 86.3375 61.0653L85.084 42.9003L95.3901 41.7759C95.3901 41.7759 97.2892 59.8368 97.5613 61.6435Z" fill="#DE8E68"/>
<path d="M68.8085 70.3417C56.0156 77.2995 67.4536 113.436 75.5335 117.136C84.6613 117.136 103.082 103.94 103.082 99.4854C103.082 95.0309 85.4024 61.3228 68.8085 70.3417Z" fill="#FED892"/>
<path d="M175.688 73.0124C175.688 79.0105 182.829 82.1758 183.869 82.1758C186.046 82.1758 186.046 75.6111 186.046 73.9114C186.046 70.0379 182.262 67.2021 179.387 67.2021C176.513 67.2021 175.688 69.613 175.688 73.0124Z" fill="#DE8E68"/>
</svg>
