<svg width="34" height="34" viewBox="0 0 34 34" fill="none" xmlns="http://www.w3.org/2000/svg">
<circle cx="17" cy="17" r="17" fill="#E4E4E4"/>
<path d="M16.5078 16.148C18.0393 16.148 19.3655 15.5988 20.4491 14.515C21.5327 13.4314 22.082 12.1056 22.082 10.5738C22.082 9.04266 21.5327 7.71665 20.4489 6.63271C19.3652 5.5493 18.0392 5 16.5078 5C14.9761 5 13.6502 5.5493 12.5667 6.63289C11.4831 7.71647 10.9336 9.04249 10.9336 10.5738C10.9336 12.1056 11.4831 13.4316 12.5668 14.5152C13.6506 15.5986 14.9766 16.148 16.5078 16.148V16.148Z" fill="white"/>
<path d="M26.2614 22.7648C26.2302 22.3138 26.167 21.8219 26.0739 21.3025C25.98 20.7791 25.8591 20.2844 25.7143 19.8322C25.5647 19.3648 25.3613 18.9033 25.1099 18.461C24.8489 18.0019 24.5424 17.6021 24.1984 17.2732C23.8388 16.9291 23.3984 16.6524 22.8892 16.4506C22.3818 16.2498 21.8194 16.1481 21.2178 16.1481C20.9816 16.1481 20.7531 16.2451 20.3119 16.5323C20.0403 16.7094 19.7227 16.9142 19.3681 17.1408C19.065 17.3339 18.6543 17.5149 18.147 17.6788C17.6521 17.8389 17.1496 17.9201 16.6536 17.9201C16.1576 17.9201 15.6553 17.8389 15.1598 17.6788C14.6531 17.5151 14.2424 17.3341 13.9396 17.141C13.5884 16.9165 13.2706 16.7117 12.995 16.5322C12.5542 16.2449 12.3256 16.1479 12.0893 16.1479C11.4876 16.1479 10.9254 16.2498 10.4181 16.4508C9.90928 16.6522 9.46875 16.9289 9.10873 17.2734C8.76496 17.6025 8.45826 18.0021 8.19765 18.461C7.9464 18.9033 7.74299 19.3646 7.59326 19.8324C7.44866 20.2845 7.32771 20.7791 7.23377 21.3025C7.14072 21.8212 7.07751 22.3133 7.04626 22.7653C7.01554 23.2081 7 23.6677 7 24.1319C7 25.34 7.38403 26.318 8.14133 27.0393C8.88926 27.751 9.87891 28.1121 11.0824 28.1121H22.2258C23.4293 28.1121 24.4186 27.7512 25.1667 27.0393C25.9242 26.3185 26.3082 25.3403 26.3082 24.1318C26.3081 23.6654 26.2923 23.2055 26.2614 22.7648Z" fill="white"/>
</svg>
