<svg width="28" height="28" viewBox="0 0 28 28" fill="none" xmlns="http://www.w3.org/2000/svg">
<g clip-path="url(#clip0)">
<path d="M17.791 24.5H4.37435C2.60452 24.5 1.16602 23.0615 1.16602 21.2917V3.20833C1.16602 1.4385 2.60452 0 4.37435 0H17.791C19.5609 0 20.9994 1.4385 20.9994 3.20833V21.2917C20.9994 23.0615 19.5609 24.5 17.791 24.5Z" fill="#0790F3"/>
<path d="M11.666 0H4.37435C2.60452 0 1.16602 1.4385 1.16602 3.20833V21.2917C1.16602 23.0615 2.60452 24.5 4.37435 24.5H11.666V0Z" fill="#0984DA"/>
<path d="M23.625 27.9998H10.2083C8.4385 27.9998 7 26.5613 7 24.7915V7.87484C7 6.105 8.4385 4.6665 10.2083 4.6665H23.625C25.3948 4.6665 26.8333 6.105 26.8333 7.87484V24.7915C26.8333 26.5613 25.3948 27.9998 23.625 27.9998Z" fill="#ECEFF1"/>
<path d="M21.291 19.8335H12.541C12.058 19.8335 11.666 19.4415 11.666 18.9585C11.666 18.4755 12.058 18.0835 12.541 18.0835H21.291C21.774 18.0835 22.166 18.4755 22.166 18.9585C22.166 19.4415 21.774 19.8335 21.291 19.8335Z" fill="#607D8B"/>
<path d="M21.291 24.5H12.541C12.058 24.5 11.666 24.108 11.666 23.625C11.666 23.142 12.058 22.75 12.541 22.75H21.291C21.774 22.75 22.166 23.142 22.166 23.625C22.166 24.108 21.774 24.5 21.291 24.5Z" fill="#607D8B"/>
<path d="M21.291 15.75H12.541C12.058 15.75 11.666 15.358 11.666 14.875C11.666 14.392 12.058 14 12.541 14H21.291C21.774 14 22.166 14.392 22.166 14.875C22.166 15.358 21.774 15.75 21.291 15.75Z" fill="#607D8B"/>
<path d="M21.291 11.0835H12.541C12.058 11.0835 11.666 10.6915 11.666 10.2085C11.666 9.7255 12.058 9.3335 12.541 9.3335H21.291C21.774 9.3335 22.166 9.7255 22.166 10.2085C22.166 10.6915 21.774 11.0835 21.291 11.0835Z" fill="#607D8B"/>
<path d="M16.9167 4.6665H10.2083C8.4385 4.6665 7 6.105 7 7.87484V24.7915C7 26.5613 8.4385 27.9998 10.2083 27.9998H16.9167V24.4998H12.5417C12.0587 24.4998 11.6667 24.1078 11.6667 23.6248C11.6667 23.1418 12.0587 22.7498 12.5417 22.7498H16.9167V19.8332H12.5417C12.0587 19.8332 11.6667 19.4412 11.6667 18.9582C11.6667 18.4752 12.0587 18.0832 12.5417 18.0832H16.9167V15.7498H12.5417C12.0587 15.7498 11.6667 15.3578 11.6667 14.8748C11.6667 14.3918 12.0587 13.9998 12.5417 13.9998H16.9167V11.0832H12.5417C12.0587 11.0832 11.6667 10.6912 11.6667 10.2082C11.6667 9.72517 12.0587 9.33317 12.5417 9.33317H16.9167V4.6665Z" fill="#CDD0D2"/>
<path d="M16.916 18.0835H12.541C12.058 18.0835 11.666 18.4755 11.666 18.9585C11.666 19.4415 12.058 19.8335 12.541 19.8335H16.916V18.0835Z" fill="#546D79"/>
<path d="M16.916 22.75H12.541C12.058 22.75 11.666 23.142 11.666 23.625C11.666 24.108 12.058 24.5 12.541 24.5H16.916V22.75Z" fill="#546D79"/>
<path d="M16.916 14H12.541C12.058 14 11.666 14.392 11.666 14.875C11.666 15.358 12.058 15.75 12.541 15.75H16.916V14Z" fill="#546D79"/>
<path d="M16.916 9.3335H12.541C12.058 9.3335 11.666 9.7255 11.666 10.2085C11.666 10.6915 12.058 11.0835 12.541 11.0835H16.916V9.3335Z" fill="#546D79"/>
</g>
<defs>
<clipPath id="clip0">
<rect width="28" height="28" fill="white"/>
</clipPath>
</defs>
</svg>
