<svg width="40" height="28" viewBox="0 0 40 28" fill="none" xmlns="http://www.w3.org/2000/svg">
<rect width="39.6098" height="28" rx="14" fill="white"/>
<path d="M12.9766 7.5122H13.6595V0H16.7327V7.5122H26.2936V20.4878H25.6107V28H22.879V20.4878V14H15.7083V20.4878H12.9766V7.5122Z" fill="#0984DA"/>
<path d="M12.9748 20.4878C11.4353 20.4878 9.95876 19.8043 8.87013 18.5876C7.78151 17.3709 7.16992 15.7207 7.16992 14C7.16992 12.2793 7.78151 10.6291 8.87013 9.41244C9.95876 8.19574 11.4353 7.51221 12.9748 7.51221L12.9748 14L12.9748 20.4878Z" fill="#0984DA"/>
<path d="M26.2908 7.51267C27.8304 7.51267 29.3069 8.19621 30.3955 9.41291C31.4841 10.6296 32.0957 12.2798 32.0957 14.0005C32.0957 15.7211 31.4841 17.3713 30.3955 18.588C29.3069 19.8047 27.8304 20.4883 26.2908 20.4883L26.2908 14.0005L26.2908 7.51267Z" fill="#0984DA"/>
</svg>
